<?xml version="1.0" encoding="UTF-8" standalone="no"?>
<!-- Created with Inkscape (http://www.inkscape.org/) -->

<svg
   xmlns:dc="http://purl.org/dc/elements/1.1/"
   xmlns:cc="http://creativecommons.org/ns#"
   xmlns:rdf="http://www.w3.org/1999/02/22-rdf-syntax-ns#"
   xmlns:svg="http://www.w3.org/2000/svg"
   xmlns="http://www.w3.org/2000/svg"
   xmlns:sodipodi="http://sodipodi.sourceforge.net/DTD/sodipodi-0.dtd"
   xmlns:inkscape="http://www.inkscape.org/namespaces/inkscape"
   width="1600"
   height="800"
   viewBox="0 0 423.33332 211.66667"
   version="1.1"
   id="svg8"
   inkscape:version="0.92.3 (2405546, 2018-03-11)"
   sodipodi:docname="Zeichnung.svg">
  <defs
     id="defs2" />
  <sodipodi:namedview
     id="base"
     pagecolor="#ffffff"
     bordercolor="#666666"
     borderopacity="1.0"
     inkscape:pageopacity="0.0"
     inkscape:pageshadow="2"
     inkscape:zoom="0.35"
     inkscape:cx="350"
     inkscape:cy="560"
     inkscape:document-units="mm"
     inkscape:current-layer="layer1"
     showgrid="false"
     units="px"
     inkscape:window-width="1920"
     inkscape:window-height="1052"
     inkscape:window-x="1920"
     inkscape:window-y="318"
     inkscape:window-maximized="1" />
  <metadata
     id="metadata5">
    <rdf:RDF>
      <cc:Work
         rdf:about="">
        <dc:format>image/svg+xml</dc:format>
        <dc:type
           rdf:resource="http://purl.org/dc/dcmitype/StillImage" />
        <dc:title></dc:title>
      </cc:Work>
    </rdf:RDF>
  </metadata>
  <g
     inkscape:label="Ebene 1"
     inkscape:groupmode="layer"
     id="layer1"
     transform="translate(0,-85.333317)">
    <path
       style="opacity:0.89800002;fill:#000000;fill-opacity:1;stroke-width:0.99999994"
       d="M -163.42773 -46.285156 L -163.42773 828 L 1799.4277 828 L 1799.4277 -46.285156 L -163.42773 -46.285156 z M 725.87695 283.67188 L 751.85742 283.67188 L 751.85742 498.6875 L 725.87695 498.6875 L 725.87695 482.51953 C 718.41496 488.96816 710.6303 493.98919 702.52344 497.58203 C 694.41658 501.17482 685.61956 502.9707 676.13086 502.9707 C 657.70617 502.9707 643.05808 495.87842 632.1875 481.69141 C 621.40907 467.5044 616.02148 447.83523 616.02148 422.68555 C 616.02148 409.604 617.86389 397.9503 621.54883 387.72461 C 625.32589 377.49892 630.39154 368.79306 636.74805 361.60742 C 643.01246 354.60602 650.29096 349.26304 658.58203 345.57812 C 666.96528 341.89322 675.62458 340.05078 684.56055 340.05078 C 692.66741 340.05078 699.85277 340.92543 706.11719 342.67578 C 712.38158 344.33399 718.9677 346.95992 725.87695 350.55273 L 725.87695 283.67188 z M 1305.2871 283.67188 L 1329.6094 283.67188 L 1230.5293 540.69531 L 1206.623 540.69531 L 1305.2871 283.67188 z M 801.60352 291.54883 L 830.89844 291.54883 L 830.89844 318.49414 L 801.60352 318.49414 L 801.60352 291.54883 z M 244.57812 329.13477 L 244.57812 354.00781 L 118.83008 408.5918 L 244.57812 463.17383 L 244.57812 488.04688 L 85.113281 417.1582 L 85.113281 400.02344 L 244.57812 329.13477 z M 1376.5918 329.13477 L 1536.0566 400.02344 L 1536.0566 417.1582 L 1376.5918 488.04688 L 1376.5918 463.17383 L 1502.3398 408.5918 L 1376.5918 354.00781 L 1376.5918 329.13477 z M 515.14453 340.05078 C 536.79351 340.05078 554.06756 347.37583 566.96484 362.02344 C 579.86213 376.57895 586.31055 396.4304 586.31055 421.58008 C 586.31055 446.72979 579.86213 466.58318 566.96484 481.13867 C 554.06756 495.69419 536.79351 502.9707 515.14453 502.9707 C 493.31126 502.9707 475.94611 495.69419 463.04883 481.13867 C 450.24366 466.58318 443.8418 446.72979 443.8418 421.58008 C 443.8418 396.4304 450.24366 376.57895 463.04883 362.02344 C 475.94611 347.37583 493.31126 340.05078 515.14453 340.05078 z M 958.71875 340.05078 C 975.39309 340.05078 988.10765 345.07183 996.85938 355.11328 C 1005.6111 365.15473 1009.9863 379.61861 1009.9863 398.50391 L 1009.9863 498.6875 L 984.00781 498.6875 L 984.00781 410.80273 C 984.00781 403.70922 983.5928 397.07461 982.76367 390.90234 C 981.93457 384.63798 980.4141 379.75656 978.20312 376.25586 C 975.90011 372.38668 972.58371 369.52997 968.25391 367.6875 C 963.9241 365.75291 958.30576 364.78711 951.39648 364.78711 C 944.30299 364.78711 936.88679 366.53644 929.14844 370.03711 C 921.41006 373.53781 913.99391 378.00614 906.90039 383.44141 L 906.90039 498.6875 L 880.92188 498.6875 L 880.92188 344.33398 L 906.90039 344.33398 L 906.90039 361.4707 C 915.00728 354.74569 923.39118 349.49386 932.05078 345.7168 C 940.71038 341.93974 949.59855 340.05078 958.71875 340.05078 z M 1117.6328 340.05078 C 1126.5688 340.05078 1134.0315 340.97198 1140.0195 342.81445 C 1146.0997 344.56478 1152.5015 347.28183 1159.2266 350.9668 L 1160.8848 344.33398 L 1185.2051 344.33398 L 1185.2051 481.13867 C 1185.2051 507.30175 1179.2628 526.5093 1167.3789 538.76172 C 1155.495 551.01414 1137.2086 557.14062 1112.5195 557.14062 C 1104.3205 557.14062 1096.3051 556.54136 1088.4746 555.34375 C 1080.7362 554.23826 1073.0912 552.62667 1065.5371 550.50781 L 1065.5371 523.97461 L 1066.918 523.97461 C 1071.1556 525.63284 1077.8814 527.66145 1087.0938 530.05664 C 1096.3055 532.54397 1105.5181 533.78711 1114.7305 533.78711 C 1123.5743 533.78711 1130.8974 532.72814 1136.7012 530.60938 C 1142.5049 528.49052 1147.0198 525.54073 1150.2441 521.76367 C 1153.4685 518.17085 1155.7724 513.84217 1157.1543 508.77539 C 1158.5361 503.70861 1159.2266 498.04369 1159.2266 491.7793 L 1159.2266 477.68359 C 1151.3961 483.94798 1143.8868 488.6471 1136.7012 491.7793 C 1129.6077 494.81937 1120.5353 496.33789 1109.4805 496.33789 C 1091.0558 496.33789 1076.4077 489.70524 1065.5371 476.43945 C 1054.7587 463.08157 1049.3691 444.28901 1049.3691 420.06055 C 1049.3691 406.79476 1051.2115 395.37184 1054.8965 385.79102 C 1058.6735 376.11805 1063.7857 367.78067 1070.2344 360.7793 C 1076.2224 354.23855 1083.5009 349.17094 1092.0684 345.57812 C 1100.6358 341.89325 1109.1574 340.05078 1117.6328 340.05078 z M 371.84766 340.74219 C 380.6915 340.74219 389.35081 341.9853 397.82617 344.47266 C 406.39366 346.95996 414.22487 350.00093 421.31836 353.59375 L 421.31836 382.47461 L 419.93555 382.47461 C 412.01293 376.30234 403.81325 371.55667 395.33789 368.24023 C 386.95467 364.9238 378.75693 363.26562 370.74219 363.26562 C 356.00243 363.26562 344.34872 368.24012 335.78125 378.18945 C 327.30589 388.04666 323.06836 402.5571 323.06836 421.71875 C 323.06836 440.32771 327.2128 454.65191 335.50391 464.69336 C 343.88714 474.64269 355.63395 479.61719 370.74219 479.61719 C 375.99322 479.61719 381.3362 478.92677 386.77148 477.54492 C 392.20677 476.16305 397.08817 474.3672 401.41797 472.15625 C 405.19503 470.22166 408.74216 468.19503 412.05859 466.07617 C 415.37505 463.86522 418.00096 461.97627 419.93555 460.41016 L 421.31836 460.41016 L 421.31836 489.01562 C 412.65876 493.16119 404.41251 496.38441 396.58203 498.6875 C 388.84365 500.99057 380.59938 502.14258 371.84766 502.14258 C 360.70072 502.14258 350.47439 500.53096 341.16992 497.30664 C 331.86545 493.99021 323.89655 489.01375 317.26367 482.38086 C 310.53867 475.74796 305.33338 467.36599 301.64844 457.23242 C 297.9635 447.09885 296.12109 435.26092 296.12109 421.71875 C 296.12109 396.47695 303.0311 376.67008 316.84961 362.29883 C 330.76026 347.92755 349.09318 340.74219 371.84766 340.74219 z M 803.26172 344.33398 L 829.24023 344.33398 L 829.24023 498.6875 L 803.26172 498.6875 L 803.26172 344.33398 z M 515.14453 362.4375 C 501.04961 362.4375 490.08829 367.31892 482.25781 377.08398 C 474.51946 386.75695 470.65039 401.5893 470.65039 421.58008 C 470.65039 440.92602 474.56406 455.62066 482.39453 465.66211 C 490.22503 475.61144 501.14176 480.58594 515.14453 480.58594 C 528.96304 480.58594 539.78867 475.65604 547.61914 465.79883 C 555.54176 455.8495 559.50195 441.11026 559.50195 421.58008 C 559.50195 401.5893 555.58831 386.75695 547.75781 377.08398 C 539.92734 367.31892 529.05516 362.4375 515.14453 362.4375 z M 1122.1934 363.4043 C 1107.9142 363.4043 1096.6736 368.19457 1088.4746 377.77539 C 1080.2756 387.35624 1076.1777 401.26738 1076.1777 419.50781 C 1076.1777 436.82702 1079.2167 449.9547 1085.2969 458.89062 C 1091.377 467.82659 1101.4657 472.29492 1115.5605 472.29492 C 1123.1147 472.29492 1130.6685 470.8656 1138.2227 468.00977 C 1145.8689 465.06183 1152.87 461.14817 1159.2266 456.26562 L 1159.2266 372.10938 C 1152.3173 368.97718 1145.8689 366.76629 1139.8809 365.47656 C 1133.985 364.09472 1128.0893 363.4043 1122.1934 363.4043 z M 688.98242 363.81836 C 674.42693 363.81836 663.09514 368.88594 654.98828 379.01953 C 646.88142 389.1531 642.82812 403.52388 642.82812 422.13281 C 642.82812 440.46539 645.96022 454.42308 652.22461 464.00391 C 658.489 473.49261 668.5311 478.23633 682.34961 478.23633 C 689.71949 478.23633 697.18221 476.62471 704.73633 473.40039 C 712.29047 470.08396 719.3362 465.8464 725.87695 460.6875 L 725.87695 372.10938 C 718.87558 368.97718 712.61139 366.81284 707.08398 365.61523 C 701.55658 364.41763 695.5232 363.81836 688.98242 363.81836 z "
       transform="matrix(0.26458333,0,0,0.26458333,0,85.333317)"
       id="rect851" />
  </g>
</svg>
