<?xml version="1.0" encoding="UTF-8" standalone="no"?>
<svg
   xmlns:dc="http://purl.org/dc/elements/1.1/"
   xmlns:cc="http://creativecommons.org/ns#"
   xmlns:rdf="http://www.w3.org/1999/02/22-rdf-syntax-ns#"
   xmlns:svg="http://www.w3.org/2000/svg"
   xmlns="http://www.w3.org/2000/svg"
   xmlns:sodipodi="http://sodipodi.sourceforge.net/DTD/sodipodi-0.dtd"
   xmlns:inkscape="http://www.inkscape.org/namespaces/inkscape"
   id="svg863"
   viewBox="0 0 165.07753 29.220931"
   height="29.22093mm"
   width="165.07753mm"
   version="1.1"
   sodipodi:docname="3ele-logo.svg"
   inkscape:version="0.92.3 (2405546, 2018-03-11)">
  <sodipodi:namedview
     pagecolor="#ffffff"
     bordercolor="#666666"
     borderopacity="1"
     objecttolerance="10"
     gridtolerance="10"
     guidetolerance="10"
     inkscape:pageopacity="0"
     inkscape:pageshadow="2"
     inkscape:window-width="1853"
     inkscape:window-height="1025"
     id="namedview11"
     showgrid="false"
     inkscape:measure-start="0,0"
     inkscape:measure-end="0,0"
     inkscape:zoom="0.67611497"
     inkscape:cx="159.49352"
     inkscape:cy="-162.93651"
     inkscape:window-x="67"
     inkscape:window-y="345"
     inkscape:window-maximized="1"
     inkscape:current-layer="svg863"
     fit-margin-top="0"
     fit-margin-left="0"
     fit-margin-right="0"
     fit-margin-bottom="0" />
  <defs
     id="defs857">
    <inkscape:perspective
       sodipodi:type="inkscape:persp3d"
       inkscape:vp_x="0 : 11.544204 : 1"
       inkscape:vp_y="0 : 1000.0001 : 0"
       inkscape:vp_z="20.828609 : 11.544204 : 1"
       inkscape:persp3d-origin="10.414305 : 7.6961358 : 1"
       id="perspective1543" />
  </defs>
  <metadata
     id="metadata860">
    <rdf:RDF>
      <cc:Work
         rdf:about="">
        <dc:format>image/svg+xml</dc:format>
        <dc:type
           rdf:resource="http://purl.org/dc/dcmitype/StillImage" />
        <dc:title></dc:title>
      </cc:Work>
    </rdf:RDF>
  </metadata>
  <g
     transform="translate(-19.982145,-9.2970828)"
     id="layer1">
    <g
       transform="matrix(0.04251759,0,0,0.04251759,18.536321,54.89191)"
       id="g77">
      <g
         style="display:inline"
         transform="matrix(4.9662436,0,0,-4.9662436,367.99514,-467.56798)"
         id="g50">
        <path
           id="path52"
           style="fill:#ff7f00;fill-opacity:1;fill-rule:nonzero;stroke:none"
           d="m 0,0 c -7.743,0 -15.219,2.148 -22.428,6.45 -1.806,1.204 -3.157,2.15 -4.058,2.835 -0.901,0.688 -2.306,1.894 -4.215,3.615 l 5.09,74.104 c 7.847,6.88 16.648,10.32 26.405,10.32 6.233,0 -2.402,5.441 -13.669,5.441 -30.032,0 -54.377,-24.355 -54.377,-54.4 0,-30.045 24.345,-54.399 54.377,-54.399 C 0.218,-6.034 8.172,0 0,0"
           inkscape:connector-curvature="0" />
      </g>
      <g
         transform="matrix(4.9662436,0,0,-4.9662436,416.0356,-464.98757)"
         id="g54">
        <path
           id="path56"
           style="fill:#ffffff;fill-opacity:1;fill-rule:nonzero;stroke:none"
           d="m 0,0 c -7.78,0 -15.292,2.158 -22.535,6.479 -1.814,1.207 -3.172,2.158 -4.077,2.847 -0.905,0.69 -2.317,1.901 -4.235,3.629 l 13.586,8.474 c 5.966,-4.267 11.56,-6.402 16.781,-6.402 4.58,0 8.655,1.464 12.227,4.398 3.568,2.929 5.353,6.277 5.353,10.043 0,4.023 -2.052,7.457 -6.153,10.303 -4.103,2.843 -9.084,4.266 -14.944,4.266 h -4.315 l -1.757,13.461 h 3.356 c 6.073,0 11.16,1.268 15.263,3.807 4.1,2.539 6.153,5.781 6.153,9.721 0,2.89 -1.545,5.559 -4.635,8.012 -3.091,2.453 -6.5,3.679 -10.229,3.679 -4.794,0 -9.589,-1.525 -14.383,-4.573 l -11.188,9.237 c 7.883,6.909 16.727,10.365 26.531,10.365 6.261,0 11.859,-1.313 16.824,-3.875 -8.723,5.896 -19.239,9.339 -30.56,9.339 -30.173,0 -54.634,-24.461 -54.634,-54.635 0,-30.175 24.461,-54.635 54.634,-54.635 13.156,0 25.223,4.651 34.654,12.397 C 15.448,2.117 8.211,0 0,0"
           inkscape:connector-curvature="0" />
      </g>
    </g>
  </g>
  <flowRoot
     xml:space="preserve"
     id="flowRoot818"
     style="font-style:normal;font-weight:normal;font-size:40px;line-height:1.25;font-family:sans-serif;letter-spacing:0px;word-spacing:0px;fill:#000000;fill-opacity:1;stroke:none"
     transform="matrix(0.26458333,0,0,0.26458333,5.869933,4.7628709)"><flowRegion
       id="flowRegion820"><rect
         id="rect822"
         width="194.86331"
         height="52.136105"
         x="21.076298"
         y="32.538845" /></flowRegion><flowPara
       id="flowPara824" /></flowRoot>  <path
     inkscape:connector-curvature="0"
     id="path951"
     style="fill:#ffffff;fill-opacity:1;fill-rule:nonzero;stroke:none;stroke-width:0.11099049"
     d="m 40.935985,13.665477 -8.468133,6.440567 -1.738222,-2.156988 5.889934,-4.479466 c -0.81556,-0.942198 -1.802713,-1.413908 -2.96123,-1.413908 -1.288044,0 -2.425694,0.493908 -3.412508,1.481057 -0.987152,0.988038 -1.481058,2.114924 -1.481058,3.381326 0,1.223437 0.461387,2.296937 1.384382,3.220044 0.922219,0.923442 1.995608,1.38473 3.219169,1.38473 1.610253,0 2.99408,-0.783816 4.15304,-2.35078 l 3.028377,1.738223 c -0.450953,0.73054 -0.788701,1.229552 -1.014565,1.497484 -0.225421,0.268818 -0.574378,0.585697 -1.04608,0.949857 -1.459865,1.116453 -3.15546,1.674835 -5.086918,1.674835 -2.319145,0 -4.256712,-0.767821 -5.812355,-2.303053 -1.555974,-1.534332 -2.334684,-3.471883 -2.334684,-5.81134 0,-2.361545 0.783484,-4.336066 2.350778,-5.925007 1.566858,-1.5881632 3.530834,-2.3828661 5.892488,-2.3828661 1.695602,0 3.241253,0.4825865 4.63685,1.4494241 0.643856,0.450067 1.153301,0.912232 1.529116,1.383942 0.37504,0.472498 0.799577,1.213459 1.271619,2.221919" />
  <path
     inkscape:connector-curvature="0"
     id="path953"
     style="fill:#ffffff;fill-opacity:1;fill-rule:nonzero;stroke:none;stroke-width:0.11099049"
     d="m 42.263099,1.5874999 h 3.735492 V 24.803163 h -3.735492 z" />
  <path
     inkscape:connector-curvature="0"
     id="path955"
     style="fill:#ffffff;fill-opacity:1;fill-rule:nonzero;stroke:none;stroke-width:0.11099049"
     d="M 63.472274,13.665477 55.004473,20.106044 53.265475,17.9486 59.15541,13.469912 c -0.815117,-0.942531 -1.80238,-1.413797 -2.960787,-1.413797 -1.288045,0 -2.425694,0.493463 -3.41295,1.481057 -0.986822,0.988038 -1.480173,2.114924 -1.480173,3.380882 0,1.223448 0.460833,2.297391 1.383938,3.220055 0.922553,0.923442 1.995609,1.384718 3.219613,1.384718 1.609809,0 2.993637,-0.783815 4.152597,-2.350778 l 3.027934,1.738666 c -0.45051,0.730095 -0.788701,1.229552 -1.014122,1.497484 -0.225422,0.268375 -0.574813,0.585253 -1.045748,0.949857 -1.460191,1.116009 -3.155793,1.674402 -5.087361,1.674402 -2.319034,0 -4.256151,-0.767832 -5.812686,-2.302609 -1.555974,-1.534776 -2.334242,-3.472337 -2.334242,-5.811795 0,-2.361212 0.783484,-4.335623 2.350335,-5.925007 1.566851,-1.5872756 3.530834,-2.3824116 5.892487,-2.3824116 1.695161,0 3.241697,0.4825872 4.636851,1.4485376 0.644299,0.450842 1.153301,0.913118 1.529116,1.384828 0.375483,0.472488 0.799577,1.213016 1.272062,2.221476" />
  <path
     inkscape:connector-curvature="0"
     id="path957"
     style="fill:#ffffff;fill-opacity:1;fill-rule:nonzero;stroke:none;stroke-width:0.11099049"
     d="m 65.188301,24.802719 v -9.832648 c 0,-1.757201 0.59613,-3.239924 1.787166,-4.450832 1.191375,-1.211028 2.678092,-1.815804 4.459597,-1.815804 1.695604,0 3.155794,0.6226562 4.378911,1.867304 1.373949,-1.2446478 2.876651,-1.867304 4.50854,-1.867304 1.716805,0 3.171001,0.604787 4.363264,1.815804 1.191039,1.210908 1.786279,2.693631 1.786279,4.450832 v 9.832648 H 82.76908 V 15.03288 c 0,-0.768609 -0.23674,-1.398148 -0.707566,-1.889834 -0.473481,-0.490801 -1.095253,-0.736645 -1.867743,-0.736645 -0.773047,0 -1.385716,0.234634 -1.835786,0.704568 -0.450399,0.469934 -0.675816,1.10036 -0.675816,1.890278 v 9.801461 h -3.703534 v -9.801461 c 0,-0.789918 -0.225421,-1.420344 -0.675821,-1.890278 -0.450954,-0.469934 -1.0523,-0.704568 -1.803156,-0.704568 -0.79391,0 -1.422559,0.240184 -1.883842,0.721438 -0.462161,0.480478 -0.692017,1.114678 -0.692017,1.905041 v 9.769828 z" />
  <path
     inkscape:connector-curvature="0"
     id="path959"
     style="fill:#ffffff;fill-opacity:1;fill-rule:nonzero;stroke:none;stroke-width:0.11099049"
     d="m 103.98902,13.665477 -8.46901,6.440567 -1.738225,-2.157444 5.889047,-4.478688 c -0.814232,-0.942531 -1.802269,-1.413797 -2.960785,-1.413797 -1.287597,0 -2.42525,0.493463 -3.412515,1.481057 -0.986822,0.988038 -1.480171,2.114924 -1.480171,3.380882 0,1.223448 0.461278,2.297391 1.383498,3.220055 0.923,0.923442 1.996051,1.384718 3.21962,1.384718 1.611019,0 2.994516,-0.783815 4.153481,-2.350778 l 3.02837,1.738666 c -0.45095,0.730095 -0.78914,1.229552 -1.01367,1.497484 -0.22587,0.268375 -0.57571,0.585253 -1.04709,0.949857 -1.46018,1.116009 -3.155788,1.674402 -5.087688,1.674402 -2.318708,0 -4.255819,-0.767832 -5.811906,-2.302609 -1.556868,-1.534776 -2.333803,-3.472337 -2.333803,-5.811795 0,-2.361212 0.782596,-4.335623 2.350335,-5.925007 1.566409,-1.5872756 3.530832,-2.3824116 5.892038,-2.3824116 1.695605,0 3.241265,0.4825872 4.635974,1.4485376 0.64474,0.450842 1.15419,0.913118 1.53,1.384828 0.37592,0.472488 0.79946,1.213016 1.2725,2.221476" />
  <path
     inkscape:connector-curvature="0"
     id="path961"
     style="fill:#ffffff;fill-opacity:1;fill-rule:nonzero;stroke:none;stroke-width:0.11099049"
     d="M 105.69506,24.802719 V 15.83412 c 0,-2.108375 0.69281,-3.823511 2.07674,-5.146287 1.38528,-1.3227841 3.17144,-1.984398 5.36096,-1.984398 2.21115,0 4.00864,0.6616139 5.39391,1.984398 1.38428,1.322776 2.07586,3.037923 2.07586,5.146287 v 8.968599 h -3.73428 v -8.876698 c 0,-1.097697 -0.34895,-1.996497 -1.04652,-2.695404 -0.6977,-0.699352 -1.5834,-1.049638 -2.65601,-1.049638 -1.1169,0 -2.01914,0.34518 -2.70539,1.03321 -0.68726,0.688475 -1.03011,1.592382 -1.03011,2.711832 v 8.876687 z" />
  <path
     inkscape:connector-curvature="0"
     id="path963"
     style="fill:#ffffff;fill-opacity:1;fill-rule:nonzero;stroke:none;stroke-width:0.11099049"
     d="m 129.71541,24.802719 h -0.74098 c -1.78185,0 -3.21995,-0.545851 -4.31387,-1.636677 -1.09515,-1.091258 -1.64311,-2.535911 -1.64311,-4.333391 V 4.180572 h 3.7355 v 4.4109841 h 2.96246 v 3.4454679 h -2.96246 v 6.840689 c 0,0.751838 0.23586,1.363951 0.7089,1.834772 0.47126,0.473043 1.09337,0.708896 1.86774,0.708896 h 0.38582 z" />
  <path
     inkscape:connector-curvature="0"
     id="path965"
     style="fill:#ffffff;fill-opacity:1;fill-rule:nonzero;stroke:none;stroke-width:0.11099049"
     d="m 130.51964,23.353727 2.2541,-2.833687 c 0.70935,0.558382 1.24521,0.83719 1.61025,0.83719 0.32299,0 0.60612,-0.133966 0.85319,-0.401897 0.24629,-0.268375 0.37071,-0.563609 0.37071,-0.885816 0,-0.407445 -0.19335,-0.826323 -0.58003,-1.256412 l -2.67255,-3.186648 c -0.79514,-0.923885 -1.19092,-1.911145 -1.19092,-2.963336 0,-1.223447 0.47215,-2.242341 1.41645,-3.0587878 0.9442,-0.8150034 2.13613,-1.2234482 3.57424,-1.2234482 0.83631,0 1.53909,0.1075499 2.10837,0.3225383 0.56927,0.2146555 1.19702,0.6113356 1.88384,1.1914835 l -2.02824,2.5757562 c -0.623,-0.450953 -1.15929,-0.676375 -1.61026,-0.676375 -0.32164,0 -0.59568,0.123532 -0.82155,0.371485 -0.22464,0.247177 -0.33773,0.542854 -0.33773,0.886704 0,0.300895 0.21287,0.699351 0.63863,1.193591 l 2.55533,3.048354 c 0.76917,0.967615 1.15331,2.030683 1.15331,3.190533 0,1.203026 -0.46217,2.223251 -1.38483,3.060897 -0.92299,0.838866 -2.07152,1.2573 -3.44504,1.2573 -0.81588,0 -1.55208,-0.107994 -2.20594,-0.322538 -0.65461,-0.213768 -1.36917,-0.590137 -2.14133,-1.126887" />
</svg>
