<?xml version="1.0" encoding="UTF-8" standalone="no"?>
<svg
   xmlns:dc="http://purl.org/dc/elements/1.1/"
   xmlns:cc="http://creativecommons.org/ns#"
   xmlns:rdf="http://www.w3.org/1999/02/22-rdf-syntax-ns#"
   xmlns:svg="http://www.w3.org/2000/svg"
   xmlns="http://www.w3.org/2000/svg"
   id="svg863"
   version="1.1"
   viewBox="0 0 20.828609 23.088406"
   height="23.088406mm"
   width="20.828609mm">
  <defs
     id="defs857" />
  <metadata
     id="metadata860">
    <rdf:RDF>
      <cc:Work
         rdf:about="">
        <dc:format>image/svg+xml</dc:format>
        <dc:type
           rdf:resource="http://purl.org/dc/dcmitype/StillImage" />
        <dc:title></dc:title>
      </cc:Work>
    </rdf:RDF>
  </metadata>
  <g
     transform="translate(-19.982145,-13.312938)"
     id="layer1">
    <g
       transform="matrix(0.04251759,0,0,0.04251759,18.536321,54.89191)"
       id="g77">
      <g
         style="display:inline"
         transform="matrix(4.9662436,0,0,-4.9662436,367.99514,-467.56798)"
         id="g50">
        <path
           id="path52"
           style="fill:#ff7f00;fill-opacity:1;fill-rule:nonzero;stroke:none"
           d="m 0,0 c -7.743,0 -15.219,2.148 -22.428,6.45 -1.806,1.204 -3.157,2.15 -4.058,2.835 -0.901,0.688 -2.306,1.894 -4.215,3.615 l 5.09,74.104 c 7.847,6.88 16.648,10.32 26.405,10.32 6.233,0 -2.402,5.441 -13.669,5.441 -30.032,0 -54.377,-24.355 -54.377,-54.4 0,-30.045 24.345,-54.399 54.377,-54.399 C 0.218,-6.034 8.172,0 0,0" />
      </g>
      <g
         transform="matrix(4.9662436,0,0,-4.9662436,416.0356,-464.98757)"
         id="g54">
        <path
           id="path56"
           style="fill:#ffffff;fill-opacity:1;fill-rule:nonzero;stroke:none"
           d="m 0,0 c -7.78,0 -15.292,2.158 -22.535,6.479 -1.814,1.207 -3.172,2.158 -4.077,2.847 -0.905,0.69 -2.317,1.901 -4.235,3.629 l 13.586,8.474 c 5.966,-4.267 11.56,-6.402 16.781,-6.402 4.58,0 8.655,1.464 12.227,4.398 3.568,2.929 5.353,6.277 5.353,10.043 0,4.023 -2.052,7.457 -6.153,10.303 -4.103,2.843 -9.084,4.266 -14.944,4.266 h -4.315 l -1.757,13.461 h 3.356 c 6.073,0 11.16,1.268 15.263,3.807 4.1,2.539 6.153,5.781 6.153,9.721 0,2.89 -1.545,5.559 -4.635,8.012 -3.091,2.453 -6.5,3.679 -10.229,3.679 -4.794,0 -9.589,-1.525 -14.383,-4.573 l -11.188,9.237 c 7.883,6.909 16.727,10.365 26.531,10.365 6.261,0 11.859,-1.313 16.824,-3.875 -8.723,5.896 -19.239,9.339 -30.56,9.339 -30.173,0 -54.634,-24.461 -54.634,-54.635 0,-30.175 24.461,-54.635 54.634,-54.635 13.156,0 25.223,4.651 34.654,12.397 C 15.448,2.117 8.211,0 0,0" />
      </g>
    </g>
  </g>
</svg>
