<?xml version="1.0" encoding="UTF-8" standalone="no"?>
<!-- Created with Inkscape (http://www.inkscape.org/) -->

<svg
   xmlns:dc="http://purl.org/dc/elements/1.1/"
   xmlns:cc="http://creativecommons.org/ns#"
   xmlns:rdf="http://www.w3.org/1999/02/22-rdf-syntax-ns#"
   xmlns:svg="http://www.w3.org/2000/svg"
   xmlns="http://www.w3.org/2000/svg"
   xmlns:sodipodi="http://sodipodi.sourceforge.net/DTD/sodipodi-0.dtd"
   xmlns:inkscape="http://www.inkscape.org/namespaces/inkscape"
   width="1024"
   height="600"
   viewBox="0 0 270.93333 158.75"
   version="1.1"
   id="svg8"
   inkscape:version="0.92.3 (2405546, 2018-03-11)"
   sodipodi:docname="background-zahnrad.svg">
  <defs
     id="defs2" />
  <sodipodi:namedview
     id="base"
     pagecolor="#ffffff"
     bordercolor="#666666"
     borderopacity="1.0"
     inkscape:pageopacity="0.0"
     inkscape:pageshadow="2"
     inkscape:zoom="0.7"
     inkscape:cx="242.54211"
     inkscape:cy="363.53752"
     inkscape:document-units="pc"
     inkscape:current-layer="g195"
     showgrid="false"
     inkscape:window-width="1853"
     inkscape:window-height="1025"
     inkscape:window-x="67"
     inkscape:window-y="48"
     inkscape:window-maximized="1"
     units="px" />
  <metadata
     id="metadata5">
    <rdf:RDF>
      <cc:Work
         rdf:about="">
        <dc:format>image/svg+xml</dc:format>
        <dc:type
           rdf:resource="http://purl.org/dc/dcmitype/StillImage" />
        <dc:title />
      </cc:Work>
    </rdf:RDF>
  </metadata>
  <g
     inkscape:label="Layer 1"
     inkscape:groupmode="layer"
     id="layer1"
     transform="translate(0,-138.24998)">
    <g
       id="g195">
      <path
         style="display:inline;fill:#000000;stroke-width:0.26458332"
         d="M -29.123737,170.25526 43.054834,317.56418 306.78532,188.34125 234.60675,41.032325 Z m 75.978562,11.17647 a 14.552084,14.552084 0 0 1 19.470663,6.66477 14.552084,14.552084 0 0 1 -6.664792,19.47067 14.552084,14.552084 0 0 1 -19.470664,-6.66479 14.552084,14.552084 0 0 1 6.664793,-19.47065 z"
         id="rect84"
         inkscape:connector-curvature="0" />
      <path
         style="display:inline;fill:#000000;stroke-width:0.26458332"
         d="m -292.85423,299.4782 72.17857,147.30892 263.730503,-129.22293 -72.17858,-147.30893 z m 75.97856,11.17647 a 14.552084,14.552084 0 0 1 19.47066,6.66477 14.552084,14.552084 0 0 1 -6.66479,19.47066 14.552084,14.552084 0 0 1 -19.47066,-6.66478 14.552084,14.552084 0 0 1 6.66479,-19.47065 z"
         id="rect84-3"
         inkscape:connector-curvature="0" />
    </g>
  </g>
</svg>
